<svg xmlns="http://www.w3.org/2000/svg" width="96" height="96" viewBox="0 0 96 96" fill="none">
  <defs>
    <linearGradient id="g" x1="16" y1="16" x2="80" y2="80" gradientUnits="userSpaceOnUse">
      <stop stop-color="#6757F5"/>
      <stop offset="0.35" stop-color="#A56ED9"/>
      <stop offset="0.6" stop-color="#CC7DB8"/>
      <stop offset="0.78" stop-color="#DF849B"/>
      <stop offset="1" stop-color="#F58C67"/>
    </linearGradient>
    <filter id="glow" x="-40%" y="-40%" width="180%" height="180%" color-interpolation-filters="sRGB">
      <feGaussianBlur stdDeviation="6" result="b"/>
      <feColorMatrix in="b" type="matrix" values="
        1 0 0 0 0
        0 1 0 0 0
        0 0 1 0 0
        0 0 0 0.35 0"/>
      <feMerge>
        <feMergeNode/>
        <feMergeNode in="SourceGraphic"/>
      </feMerge>
    </filter>
  </defs>
  <rect x="10" y="10" width="76" height="76" rx="20" fill="#111628"/>
  <path d="M28 50c0-13.255 10.745-24 24-24 6.673 0 12.71 2.725 17.06 7.126 1.04 1.053 1.04 2.76 0 3.814l-3.39 3.433c-1.034 1.047-2.71 1.047-3.744 0A15.925 15.925 0 0 0 52 38c-6.627 0-12 5.373-12 12s5.373 12 12 12a15.93 15.93 0 0 0 9.926-3.373c1.034-1.047 2.71-1.047 3.744 0l3.39 3.433c1.04 1.054 1.04 2.76 0 3.814C64.71 71.275 58.673 74 52 74c-13.255 0-24-10.745-24-24Z" fill="url(#g)" filter="url(#glow)"/>
  <circle cx="72" cy="28" r="5" fill="#3D1AEF" opacity="0.9"/>
</svg>

